Coordinates
version=1
nRows=10
nColumns=40
inDegrees=yes

Units are S.I. units (second, meters, Newtons, ...)
Angles are in degrees.

endheader
time	pelvis_tilt	pelvis_list	pelvis_rotation	pelvis_tx	pelvis_ty	pelvis_tz	hip_flexion_r	hip_adduction_r	hip_rotation_r	knee_angle_r	knee_angle_r_beta	ankle_angle_r	subtalar_angle_r	mtp_angle_r	hip_flexion_l	hip_adduction_l	hip_rotation_l	knee_angle_l	knee_angle_l_beta	ankle_angle_l	subtalar_angle_l	mtp_angle_l	lumbar_extension	lumbar_bending	lumbar_rotation	arm_flex_r	arm_add_r	arm_rot_r	elbow_flex_r	pro_sup_r	wrist_flex_r	wrist_dev_r	arm_flex_l	arm_add_l	arm_rot_l	elbow_flex_l	pro_sup_l	wrist_flex_l	wrist_dev_l
     50.19250000	     -1.75293741	     -4.62746176	     -1.85585531	      1.11520855	      0.93083519	      0.47761357	     15.44615092	      1.24869894	     -9.89068334	     19.34544185	     19.34544185	      7.43886320	     -0.57263165	     -3.91248820	      1.54675157	    -12.36271115	    -13.08166205	     30.12440412	     30.12440412	     14.51144076	     -9.79774448	     -6.18020428	     -7.76299530	      5.34365168	      0.87215756	     -8.51389594	    -11.54315128	     -3.50727235	     27.86445430	     45.64985577	      0.00000000	      0.00000000	     10.52722009	    -12.92486096	    -14.05296179	     73.32595161	     46.68523632	      0.00000000	      0.00000000
     50.20571429	     -1.56402121	     -4.73944964	     -1.55652587	      1.11603736	      0.93163792	      0.48081561	     14.54776108	      1.53781728	    -10.35644976	     18.89922429	     18.89922429	      7.64450232	     -0.19771854	     -3.88168032	      2.97727319	    -13.18800653	    -12.09908833	     33.59065928	     33.59065928	     13.15044321	    -11.00065384	     -6.77699309	     -7.91597417	      5.37412708	      0.95757110	     -7.39636921	    -11.67163164	     -3.51463672	     28.44784218	     45.64007330	      0.00000000	      0.00000000	      9.76072309	    -12.56734574	    -13.80036103	     72.00234504	     46.65061952	      0.00000000	      0.00000000
     50.21892857	     -1.52254508	     -4.62265201	     -1.18583872	      1.11657164	      0.93207269	      0.48346202	     13.92303542	      1.46995808	    -11.07805457	     18.66866113	     18.66866113	      8.09921183	      0.59180506	     -4.14663800	      4.71108240	    -13.50042192	    -10.52901033	     36.99815710	     36.99815710	     11.03330024	    -13.25306469	     -7.90448993	     -7.74134405	      5.30002277	      0.84804076	     -6.33391247	    -11.89014789	     -3.41224949	     29.44486017	     45.61569965	      0.00000000	      0.00000000	      9.71383060	    -12.24057433	    -13.51725396	     67.85498629	     46.59825376	      0.00000000	      0.00000000
     50.23214286	     -1.45221203	     -4.71747423	     -0.77757473	      1.11672013	      0.93238677	      0.48609300	     13.25237857	      1.66787732	    -11.73054641	     18.34540182	     18.34540182	      8.34919758	      1.15615474	     -4.33221515	      6.66119061	    -14.10231417	     -9.08181912	     40.72347503	     40.72347503	      9.19638066	    -14.78939265	     -8.26972812	     -7.75169911	      5.42375358	      1.09143758	     -5.30370104	    -12.20941148	     -3.38801197	     30.49882038	     45.59517051	      0.00000000	      0.00000000	      9.77105411	    -11.76909254	    -12.98619009	     64.31168346	     46.53875161	      0.00000000	      0.00000000
     50.24535714	     -1.38492137	     -4.79846268	     -0.33962471	      1.11655976	      0.93252816	      0.48848546	     12.64572116	      1.84273085	    -12.35799721	     18.09165761	     18.09165761	      8.60794201	      1.59990212	     -4.53361315	      8.76523503	    -14.59869507	     -7.58110273	     44.52849185	     44.52849185	      7.77505140	    -15.85408492	     -7.51003202	     -7.79654388	      5.53182423	      1.18379297	     -4.08253322	    -12.56589653	     -3.45017498	     31.53465092	     45.58041741	      0.00000000	      0.00000000	      9.67573929	    -11.38924561	    -12.42802725	     60.92116270	     46.47342910	      0.00000000	      0.00000000
     50.25857143	     -1.30066468	     -4.92448885	      0.10960094	      1.11608960	      0.93254177	      0.49065811	     12.06445939	      2.06141540	    -12.96422704	     17.87209743	     17.87209743	      8.85110581	      1.95525161	     -4.74285961	     11.01523905	    -15.05075589	     -6.05224530	     48.42400097	     48.42400097	      7.33088350	    -16.15125595	     -4.55478193	     -7.87553750	      5.70872962	      1.93316304	     -3.31866534	    -13.09383601	     -3.68940573	     32.85920817	     45.57962613	      0.00000000	      0.00000000	     10.41418969	    -10.69624849	    -11.41402976	     56.33277556	     46.39214431	      0.00000000	      0.00000000
     50.27178571	     -1.23618936	     -5.01432502	      0.59155575	      1.11537627	      0.93248846	      0.49254464	     11.58309957	      2.21059639	    -13.58166203	     17.76865827	     17.76865827	      9.14620700	      2.29243943	     -4.91193513	     13.27152935	    -15.31530297	     -4.51558592	     51.96650188	     51.96650188	      6.89073383	    -16.44643840	     -1.74324530	     -7.96635049	      5.85116228	      2.05943163	     -1.88105669	    -13.55881405	     -3.94727140	     33.72495173	     45.59550512	      0.00000000	      0.00000000	     10.51124132	    -10.28366558	    -10.73002863	     52.46093331	     46.32730196	      0.00000000	      0.00000000
     50.28500000	     -1.06316689	     -5.20624590	      1.06744311	      1.11451472	      0.93248046	      0.49431955	     11.00959353	      2.50804945	    -14.01174651	     17.66897752	     17.66897752	      9.39157702	      2.32673727	     -4.96715939	     15.26455192	    -15.70513416	     -3.25206144	     54.92200617	     54.92200617	      5.77518852	    -16.83248779	     -1.40669042	     -8.30645409	      6.08873184	      2.10889136	     -0.11956756	    -14.09878048	     -4.11993881	     34.45837367	     45.59273946	      0.00000000	      0.00000000	      9.67557430	     -9.86273590	    -10.44439645	     51.19521660	     46.28374109	      0.00000000	      0.00000000
     50.29821429	     -1.10129863	     -5.19668760	      1.54696450	      1.11345768	      0.93236435	      0.49574219	     10.67735381	      2.53378743	    -14.58635128	     17.58388305	     17.58388305	      9.73069415	      2.63541207	     -5.07192543	     17.56653025	    -15.64901528	     -1.90683403	     57.74396343	     57.74396343	      6.47681169	    -16.55140522	      3.10618015	     -8.21093690	      6.13448086	      2.27625893	      1.47024142	    -14.57468948	     -4.21567476	     34.96689252	     45.60995595	      0.00000000	      0.00000000	     10.54777469	     -9.43978580	     -9.58560577	     44.78219968	     46.17939726	      0.00000000	      0.00000000
     50.31142857	     -1.04178504	     -5.25363912	      2.00570195	      1.11231179	      0.93238372	      0.49708654	     10.24493916	      2.67207952	    -14.97836971	     17.47244450	     17.47244450	     10.01532172	      2.67865209	     -5.05196531	     19.55649490	    -15.70351097	     -0.88068165	     59.83949414	     59.83949414	      6.62586674	    -16.47658486	      5.27482464	     -8.36275826	      6.24241495	      2.38532627	      3.16340616	    -15.06738384	     -4.64288200	     35.85997709	     45.63043549	      0.00000000	      0.00000000	     10.38205566	     -9.05268018	     -8.97802228	     41.32266611	     46.11342530	      0.00000000	      0.00000000
